<?xml version="1.0" encoding="UTF-8"?>
<svg width="512" height="512" viewBox="0 0 512 512" fill="none" xmlns="http://www.w3.org/2000/svg">
  <rect width="512" height="512" rx="16" fill="#F1F5F9"/>
  <path d="M256 192C273.673 192 288 177.673 288 160C288 142.327 273.673 128 256 128C238.327 128 224 142.327 224 160C224 177.673 238.327 192 256 192Z" fill="#94A3B8"/>
  <path d="M384 384H128V341.33C128 307.55 155.55 280 189.33 280H322.67C356.45 280 384 307.55 384 341.33V384Z" fill="#94A3B8"/>
  <path fill-rule="evenodd" clip-rule="evenodd" d="M64 32C46.3269 32 32 46.3269 32 64V448C32 465.673 46.3269 480 64 480H448C465.673 480 480 465.673 480 448V64C480 46.3269 465.673 32 448 32H64ZM448 64H64V448H448V64Z" fill="#CBD5E1"/>
</svg>